<svg xmlns="http://www.w3.org/2000/svg" xmlns:xlink="http://www.w3.org/1999/xlink" viewBox="0 0 200 200"><defs><style>.cls-1{fill:none;}.cls-2{clip-path:url(#clip-path);}.cls-3{fill:url(#未命名漸層_11);}.cls-4{fill:url(#未命名漸層_144);}.cls-5{fill:url(#未命名漸層_142);}</style><clipPath id="clip-path"><path class="cls-1" d="M19.27,79,77.5,38.68l44,3.06V1.59h48V81.45l-58.63,46.62L87.75,104.23,23.19,144.56ZM51.18,178c1.7,1,75.49,6.55,76.85,5.87s49.43-40.34,49.43-40.34l7.1-67.78L169.49,87.11,110.88,133.9,87.05,109.32l-61.39,40S49.48,177,51.18,178Z"/></clipPath><linearGradient id="未命名漸層_11" x1="99.5" y1="172.97" x2="99.5" y2="2.11" gradientUnits="userSpaceOnUse"><stop offset="0" stop-color="#242424"/><stop offset="0.4" stop-color="#303131"/><stop offset="1" stop-color="#494c4b"/></linearGradient><linearGradient id="未命名漸層_144" x1="166.67" y1="164.79" x2="187.83" y2="185.96" gradientUnits="userSpaceOnUse"><stop offset="0" stop-color="#242424"/><stop offset="0.65" stop-color="#3b3d3c"/><stop offset="1" stop-color="#494c4b"/></linearGradient><linearGradient id="未命名漸層_142" x1="31.8" y1="170.33" x2="166.7" y2="35.44" xlink:href="#未命名漸層_11"/></defs><g id="圖層_3" data-name="圖層 3"><g class="cls-2"><path class="cls-3" d="M46.67,91.49a2.84,2.84,0,0,1,2.84,2.84v57.93a70,70,0,0,1-20-42.17V94.33a2.84,2.84,0,0,1,2.84-2.84Zm9.66-34a2.82,2.82,0,0,0-2.82,2.82V156a69.65,69.65,0,0,0,20,12.11V60.27a2.82,2.82,0,0,0-2.82-2.82Zm24-13.58a2.79,2.79,0,0,0-2.79,2.79V169.53a69.94,69.94,0,0,0,20,3.44V46.66a2.79,2.79,0,0,0-2.79-2.79Zm24,8a2.77,2.77,0,0,0-2.78,2.78V173a70.36,70.36,0,0,0,20-3.55V54.63a2.78,2.78,0,0,0-2.78-2.78Zm24-49.74a2.79,2.79,0,0,0-2.79,2.79v163a69.91,69.91,0,0,0,20-12.29V4.9a2.79,2.79,0,0,0-2.79-2.79Zm38.4,17.41H152.3a2.8,2.8,0,0,0-2.81,2.8V151.87a69.94,69.94,0,0,0,20-49.05V22.32A2.8,2.8,0,0,0,166.68,19.52Z"/></g><path class="cls-4" d="M169.93,158.28l22.64,18.27a10.06,10.06,0,1,1-12.64,15.65,10.63,10.63,0,0,1-1.5-1.5l-18.28-22.64a7,7,0,0,1,9.78-9.78Z"/><path class="cls-5" d="M195.23,98.94l0-.89c-.06-1.09-.13-2.18-.22-3.26,0-.42-.07-.84-.11-1.26-.09-1-.19-1.9-.31-2.85-.07-.54-.15-1.09-.22-1.63s-.18-1.24-.28-1.85c-.15-.89-.31-1.77-.48-2.65-.09-.48-.18-1-.28-1.45-.14-.67-.29-1.34-.44-2l-.08-.32c-.33-1.4-.69-2.79-1.07-4.16,0-.12-.07-.24-.11-.36A94.61,94.61,0,0,0,183.74,57q-1.29-2.4-2.72-4.7c-.91-1.47-1.86-2.92-2.85-4.33s-2-2.76-3-4.1V98.08s0,.09,0,.14c0,.27,0,.53.05.79.05,1.2.09,2.41.09,3.63s0,2.42-.09,3.62c0,.26,0,.53-.05.79,0,0,0,.09,0,.14-.06.91-.12,1.83-.21,2.74,0,.27-.06.55-.08.82-.12,1-.24,2-.39,3.06,0,.15,0,.3-.07.45A75.81,75.81,0,0,1,28,127.68q-.87-2.46-1.57-5a75.17,75.17,0,0,1-1.8-8.41c0-.15,0-.3-.07-.45q-.22-1.52-.39-3.06c0-.27-.05-.55-.08-.82-.09-.91-.15-1.83-.21-2.74,0,0,0-.09,0-.14,0-.27,0-.53,0-.79-.05-1.2-.09-2.41-.09-3.62s0-2.43.09-3.63c0-.26,0-.52,0-.79a1.94,1.94,0,0,1,0-.24q0-.84.12-1.68c0-.32.05-.64.08-1s.06-.55.08-.82q.16-1.55.39-3.06c0-.15.05-.3.07-.45a75.82,75.82,0,0,1,94.93-61.46V9A95.68,95.68,0,0,0,25.68,41.66v-.08c-.34.41-.67.82-1,1.24A95.47,95.47,0,0,0,7.4,76.24c0,.13-.07.25-.11.37-.38,1.37-.74,2.76-1.07,4.15,0,.11,0,.22-.08.33-.15.67-.3,1.34-.44,2-.1.48-.19,1-.29,1.46-.16.88-.32,1.76-.47,2.64-.1.61-.19,1.23-.28,1.85s-.15,1.09-.22,1.63c-.12.95-.22,1.89-.31,2.85,0,.42-.08.84-.11,1.26-.09,1.08-.16,2.17-.22,3.26l0,.89c0,1.18-.08,2.37-.08,3.56v.27c0,1.19,0,2.38.08,3.56l0,.89c.06,1.09.13,2.18.22,3.26,0,.42.07.84.11,1.26.09,1,.19,1.9.31,2.85.07.54.15,1.09.22,1.63s.18,1.24.28,1.85c.15.89.31,1.77.48,2.65.09.48.18,1,.28,1.45.14.67.29,1.34.44,2,0,.11.05.21.08.32.33,1.4.69,2.79,1.07,4.16,0,.12.07.24.11.36a95.6,95.6,0,0,0,17.28,33.43c.33.42.66.83,1,1.24v-.08a95.7,95.7,0,0,0,147.64,0v.08c.34-.41.67-.82,1-1.24A95.47,95.47,0,0,0,191.6,129c0-.13.07-.25.11-.37.38-1.37.74-2.76,1.07-4.15,0-.11.05-.22.08-.33.15-.67.3-1.34.44-2,.1-.48.19-1,.29-1.46.16-.88.32-1.76.47-2.64.1-.61.19-1.23.28-1.85s.15-1.09.22-1.63c.12-1,.22-1.89.31-2.85,0-.42.08-.84.11-1.26.09-1.08.16-2.17.22-3.26l0-.89c.05-1.18.08-2.37.08-3.56v-.27C195.31,101.31,195.28,100.12,195.23,98.94Z"/></g></svg>