<svg xmlns="http://www.w3.org/2000/svg" xmlns:xlink="http://www.w3.org/1999/xlink" viewBox="0 0 200 200"><defs><style>.cls-1{fill:url(#未命名漸層_162);}.cls-2{fill:url(#未命名漸層_164);}.cls-3{fill:url(#未命名漸層_164-2);}.cls-4{fill:url(#未命名漸層_162-2);}.cls-5{fill:url(#未命名漸層_164-3);}.cls-6{fill:url(#未命名漸層_164-4);}.cls-7{fill:url(#未命名漸層_142);}.cls-8{fill:url(#未命名漸層_144);}.cls-9{fill:url(#未命名漸層_142-2);}</style><linearGradient id="未命名漸層_162" x1="39.51" y1="91.24" x2="39.51" y2="152.01" gradientUnits="userSpaceOnUse"><stop offset="0" stop-color="#5ba534"/><stop offset="0.22" stop-color="#579c31"/><stop offset="0.57" stop-color="#4b8427"/><stop offset="1" stop-color="#395d18"/></linearGradient><linearGradient id="未命名漸層_164" x1="63.51" y1="57.2" x2="63.51" y2="167.84" gradientUnits="userSpaceOnUse"><stop offset="0" stop-color="#d93b39"/><stop offset="0.18" stop-color="#d03836"/><stop offset="0.46" stop-color="#b82e2c"/><stop offset="0.82" stop-color="#901f1d"/><stop offset="1" stop-color="#7a1615"/></linearGradient><linearGradient id="未命名漸層_164-2" x1="87.5" y1="43.62" x2="87.5" y2="172.72" xlink:href="#未命名漸層_164"/><linearGradient id="未命名漸層_162-2" x1="111.5" y1="51.6" x2="111.5" y2="172.71" xlink:href="#未命名漸層_162"/><linearGradient id="未命名漸層_164-3" x1="135.49" y1="1.86" x2="135.49" y2="167.69" xlink:href="#未命名漸層_164"/><linearGradient id="未命名漸層_164-4" x1="159.49" y1="19.27" x2="159.49" y2="151.62" xlink:href="#未命名漸層_164"/><linearGradient id="未命名漸層_142" x1="37.43" y1="110.15" x2="169.49" y2="110.15" gradientUnits="userSpaceOnUse"><stop offset="0" stop-color="#242424"/><stop offset="0.4" stop-color="#303131"/><stop offset="1" stop-color="#494c4b"/></linearGradient><linearGradient id="未命名漸層_144" x1="166.67" y1="164.54" x2="187.83" y2="185.7" gradientUnits="userSpaceOnUse"><stop offset="0" stop-color="#242424"/><stop offset="0.65" stop-color="#3b3d3c"/><stop offset="1" stop-color="#494c4b"/></linearGradient><linearGradient id="未命名漸層_142-2" x1="31.8" y1="170.08" x2="166.7" y2="35.18" xlink:href="#未命名漸層_142"/></defs><g id="圖層_1" data-name="圖層 1"><path class="cls-1" d="M32.35,91.24a2.84,2.84,0,0,0-2.84,2.84v15.76a70,70,0,0,0,20,42.17V94.08a2.84,2.84,0,0,0-2.84-2.84Z"/><path class="cls-2" d="M56.33,57.2A2.82,2.82,0,0,0,53.51,60v95.71a69.65,69.65,0,0,0,20,12.11V60a2.82,2.82,0,0,0-2.82-2.82Z"/><path class="cls-3" d="M80.29,43.62a2.79,2.79,0,0,0-2.79,2.79V169.28a69.94,69.94,0,0,0,20,3.44V46.41a2.79,2.79,0,0,0-2.79-2.79Z"/><path class="cls-4" d="M104.28,51.6a2.77,2.77,0,0,0-2.78,2.78V172.71a70.36,70.36,0,0,0,20-3.55V54.38a2.78,2.78,0,0,0-2.78-2.78Z"/><path class="cls-5" d="M128.28,1.86a2.79,2.79,0,0,0-2.79,2.79v163a69.91,69.91,0,0,0,20-12.29V4.65a2.79,2.79,0,0,0-2.79-2.79Z"/><path class="cls-6" d="M169.49,22.07v80.5a69.94,69.94,0,0,1-20,49.05V22.07a2.8,2.8,0,0,1,2.81-2.8h14.38A2.8,2.8,0,0,1,169.49,22.07Z"/><polygon class="cls-7" points="39.4 139.11 40.16 138.63 49.51 132.74 53.51 130.21 73.51 117.61 77.5 115.09 87.05 109.07 97.5 119.85 101.5 123.97 110.88 133.65 121.5 125.18 125.49 121.99 145.49 106.02 149.49 102.83 164.76 90.64 169.49 86.86 169.49 81.2 164.76 84.96 149.49 97.1 145.49 100.28 125.49 116.19 121.5 119.36 110.86 127.82 101.49 118.16 97.5 114.04 87.75 103.98 77.5 110.44 73.51 112.95 53.51 125.55 49.51 128.07 38.83 134.8 37.43 135.68 39.4 139.11"/><path class="cls-8" d="M169.93,158l22.64,18.27A10.06,10.06,0,1,1,179.93,192a10.19,10.19,0,0,1-1.5-1.51l-18.28-22.63a7,7,0,0,1,9.78-9.78Z"/><path class="cls-9" d="M195.23,98.69l0-.89c-.06-1.09-.13-2.18-.22-3.26,0-.42-.07-.84-.11-1.26-.09-1-.19-1.9-.31-2.85-.07-.54-.15-1.09-.22-1.63s-.18-1.24-.28-1.85c-.15-.89-.31-1.77-.48-2.65-.09-.48-.18-1-.28-1.45-.14-.67-.29-1.34-.44-2l-.08-.32c-.33-1.4-.69-2.79-1.07-4.16,0-.12-.07-.24-.11-.36a94.61,94.61,0,0,0-7.86-19.22q-1.29-2.4-2.72-4.7c-.91-1.47-1.86-2.92-2.85-4.33s-2-2.76-3-4.1V97.83s0,.09,0,.14c0,.27,0,.53.05.79.05,1.2.09,2.41.09,3.63s0,2.42-.09,3.62c0,.26,0,.53-.05.79,0,0,0,.09,0,.14-.06.91-.12,1.83-.21,2.74,0,.27-.06.55-.08.82-.12,1-.24,2-.39,3.06,0,.15,0,.3-.07.45A75.81,75.81,0,0,1,28,127.43q-.87-2.46-1.57-5a75.17,75.17,0,0,1-1.8-8.41c0-.15,0-.3-.07-.45q-.22-1.52-.39-3.06c0-.27-.05-.55-.08-.82-.09-.91-.15-1.83-.21-2.74,0,0,0-.09,0-.14,0-.27,0-.53,0-.79-.05-1.2-.09-2.41-.09-3.62s0-2.43.09-3.63c0-.26,0-.52,0-.79a1.94,1.94,0,0,1,0-.24q0-.84.12-1.68c0-.32.05-.64.08-1s.06-.55.08-.82q.16-1.55.39-3.06c0-.15.05-.3.07-.45A75.82,75.82,0,0,1,119.52,29.3V8.73A95.68,95.68,0,0,0,25.68,41.41v-.08c-.34.41-.67.82-1,1.24A95.47,95.47,0,0,0,7.4,76c0,.13-.07.25-.11.37-.38,1.37-.74,2.76-1.07,4.15,0,.11,0,.22-.08.33-.15.67-.3,1.34-.44,2-.1.48-.19,1-.29,1.46-.16.88-.32,1.76-.47,2.64-.1.61-.19,1.23-.28,1.85s-.15,1.09-.22,1.63c-.12.95-.22,1.89-.31,2.85,0,.42-.08.84-.11,1.26-.09,1.08-.16,2.17-.22,3.26l0,.89c0,1.18-.08,2.37-.08,3.56v.27c0,1.19,0,2.38.08,3.56l0,.89c.06,1.09.13,2.18.22,3.26,0,.42.07.84.11,1.26.09,1,.19,1.9.31,2.85.07.54.15,1.09.22,1.63s.18,1.24.28,1.85c.15.89.31,1.77.48,2.65.09.48.18,1,.28,1.45.14.67.29,1.34.44,2,0,.11.05.21.08.32.33,1.4.69,2.79,1.07,4.16,0,.12.07.24.11.36A95.6,95.6,0,0,0,24.68,162.2c.33.42.66.83,1,1.24v-.08a95.7,95.7,0,0,0,147.64,0v.08c.34-.41.67-.82,1-1.24a95.47,95.47,0,0,0,17.28-33.42c0-.13.07-.25.11-.37.38-1.37.74-2.76,1.07-4.15,0-.11.05-.22.08-.33.15-.67.3-1.34.44-2,.1-.48.19-1,.29-1.46.16-.88.32-1.76.47-2.64.1-.61.19-1.23.28-1.85s.15-1.09.22-1.63c.12-1,.22-1.89.31-2.85,0-.42.08-.84.11-1.26.09-1.08.16-2.17.22-3.26l0-.89c.05-1.18.08-2.37.08-3.56v-.27C195.31,101.06,195.28,99.87,195.23,98.69Z"/></g></svg>